<?xml version="1.0" encoding="UTF-8"?>
<svg width="24px" height="21px" viewBox="0 0 24 21" version="1.1" xmlns="http://www.w3.org/2000/svg" xmlns:xlink="http://www.w3.org/1999/xlink">
    <!-- Generator: Sketch 48.2 (47327) - http://www.bohemiancoding.com/sketch -->
    <title>icon/24x24/camera</title>
    <desc>Created with Sketch.</desc>
    <defs></defs>
    <g id="icon/24x24/camera" stroke="none" stroke-width="1" fill="none" fill-rule="evenodd">
        <g fill="#FFFFFF">
            <path d="M15,3.26327582e-06 C16.1345367,-0.00166552826 17.1729591,0.636827749 17.6835,1.65000301 L18.354,3.0000028 L21,3.0000028 C22.6568542,3.0000028 24,4.34314834 24,6.00000233 L24,18.0000005 C24,19.6568545 22.6568542,21 21,21 L3,21 C1.34314575,21 0,19.6568545 0,18.0000005 L0,6.00000233 C0,4.34314834 1.34314575,3.0000028 3,3.0000028 L5.646,3.0000028 L6.3165,1.65000301 C6.82704086,0.636827749 7.86546327,-0.00166552826 9,3.26327577e-06 L15,3.26327577e-06 Z M15,3.0000028 L9,3.0000028 L7.5,6.00000233 L3,6.00000233 L3,18.0000005 L21,18.0000005 L21,6.00000233 L16.5,6.00000233 L15,3.0000028 Z" fill-rule="nonzero"></path>
            <path d="M12,16.5 C9.51471863,16.5 7.5,14.4852814 7.5,12 C7.5,9.51471863 9.51471863,7.5 12,7.5 C14.4852814,7.5 16.5,9.51471863 16.5,12 C16.5,14.4852814 14.4852814,16.5 12,16.5 Z M12,13.5 C12.8284271,13.5 13.5,12.8284271 13.5,12 C13.5,11.1715729 12.8284271,10.5 12,10.5 C11.1715729,10.5 10.5,11.1715729 10.5,12 C10.5,12.8284271 11.1715729,13.5 12,13.5 Z" id="Combined-Shape" fill-opacity="0.64"></path>
        </g>
    </g>
</svg>