<?xml version="1.0" encoding="UTF-8"?>
<svg width="24px" height="24px" viewBox="0 0 24 24" version="1.1" xmlns="http://www.w3.org/2000/svg" xmlns:xlink="http://www.w3.org/1999/xlink">
    <!-- Generator: Sketch 48.2 (47327) - http://www.bohemiancoding.com/sketch -->
    <title>icon/16x16/dribbble</title>
    <desc>Created with Sketch.</desc>
    <defs></defs>
    <g id="_navigation/side-menu:default" stroke="none" stroke-width="1" fill="none" fill-rule="evenodd" transform="translate(-38.000000, -644.000000)">
        <g id="icon/16x16/dribbble" transform="translate(38.000000, 644.000000)" fill="#B0B7C2">
            <path d="M24,12.0000235 C24,12.8126873 23.9173812,13.6242238 23.7551025,14.4152829 C23.5968632,15.1875554 23.3624869,15.9457379 23.0554491,16.6705271 C22.7554567,17.3824944 22.3833666,18.068583 21.9485726,18.7084096 C21.5202604,19.344197 21.0268488,19.9406733 20.4848241,20.4844061 C19.9416251,21.0257906 19.3439419,21.5185176 18.7093408,21.9492486 C18.068305,22.3816235 17.3821787,22.7536932 16.670783,23.0555009 C15.9459541,23.3613476 15.1870725,23.5957112 14.4165426,23.7538948 C13.625534,23.9168221 12.8121682,24 11.9994599,24 C11.186141,24 10.372822,23.9168221 9.58294078,23.7538948 C8.8112366,23.5957112 8.05240199,23.3613476 7.32813671,23.0555009 C6.61678797,22.7536932 5.93000413,22.3816235 5.2889683,21.9492486 C4.65436726,21.5185645 4.05668401,21.0257906 3.51465929,20.4844061 C2.97207093,19.9406733 2.47865934,19.344197 2.04973648,18.7084096 C1.61729093,18.068583 1.24459022,17.3824474 0.943423625,16.6705271 C0.636338906,15.9457379 0.4013989,15.1875084 0.242595988,14.4152829 C0.0820552162,13.6242238 0,12.8126873 0,12.0000235 C0,11.1867491 0.082008247,10.3734748 0.242642958,9.58415346 C0.401445869,8.81188099 0.636385876,8.05252436 0.943470594,7.32890934 C1.24463719,6.61642541 1.6173379,5.92972616 2.04978345,5.28985266 C2.47870631,4.65354862 2.9721179,4.05819949 3.51470626,3.51385614 C4.05673098,2.97242471 4.65441423,2.48087186 5.28901527,2.05079834 C5.9300511,1.61659175 6.61683494,1.24456899 7.32818368,0.942197765 C8.05244896,0.635693472 8.8112366,0.400766339 9.58298775,0.243756862 C10.372869,0.0820507201 11.1861879,0 11.9995068,0 C12.8122151,0 13.625534,0.0820507201 14.4165895,0.243756862 C15.1871195,0.400813306 15.9459541,0.635740439 16.67083,0.942197765 C17.3821787,1.24452203 18.0683519,1.61659175 18.7093878,2.05079834 C19.3439888,2.48087186 19.941719,2.97242471 20.484871,3.51385614 C21.0268957,4.05819949 21.5203073,4.65354862 21.9486196,5.28985266 C22.3833666,5.92972616 22.7554567,6.61647237 23.0554491,7.32890934 C23.3624869,8.05252436 23.5968632,8.81188099 23.7551025,9.58415346 C23.9173812,10.3734748 24,11.1867491 24,12.0000235 Z M7.62695485,2.73106315 C4.76916001,4.08050865 2.63624105,6.71369332 1.97115699,9.88713525 C2.24132391,9.88948358 6.51185875,9.94340128 11.4322127,8.63613183 C9.65851425,5.48495208 7.76349435,2.91334068 7.62695485,2.73106315 Z M12.2812751,10.214117 C7.00465974,11.793746 1.94128457,11.6800867 1.75965462,11.6730887 C1.75669556,11.7832255 1.75143501,11.8898397 1.75143501,12.0000235 C1.75143501,14.6325976 2.744646,17.0325929 4.37715496,18.8472899 C4.37363227,18.8419827 7.17811704,13.8668065 12.7084601,12.0785517 C12.8420406,12.0340273 12.9780165,11.9941527 13.1127711,11.9554991 C12.8555677,11.3731128 12.5748327,10.7895053 12.2812751,10.214117 Z M18.7673948,4.30900135 C16.9631664,2.71814732 14.5941332,1.75317074 11.9994599,1.75317074 C11.1667896,1.75317074 10.3587313,1.85396115 9.58467864,2.04027781 C9.73817403,2.24655529 11.6631133,4.80003757 13.4157226,8.01795691 C17.282557,6.56837854 18.7421723,4.34648073 18.7673948,4.30900135 Z M13.8112503,13.653531 C13.7884233,13.6610926 13.7655962,13.667621 13.7432858,13.6757932 C7.69678344,15.7835784 5.72221609,20.0313702 5.70085227,20.0777402 C7.44062798,21.430643 9.62277067,22.2468762 11.9994599,22.2468762 C13.4186346,22.2468762 14.7704556,21.9579375 16.0003914,21.4347761 C15.8486339,20.539451 15.2532991,17.4011871 13.8112503,13.653531 Z M17.7261343,20.4984491 C20.027203,18.945732 21.6614498,16.4801243 22.117333,13.6241769 C21.9063943,13.5562161 19.0392526,12.6485858 15.7314457,13.1788861 C17.0756576,16.8726715 17.6218156,19.8808848 17.7261343,20.4984491 Z M14.2044766,9.54493631 C14.4423287,10.0336242 14.6726657,10.5310009 14.8853423,11.0308669 C14.9609627,11.2101855 15.0347983,11.3859816 15.1068491,11.5617308 C18.6273326,11.1187415 22.0956802,11.8640551 22.243962,11.8944894 C22.2205244,9.46523392 21.3515,7.23572752 19.9135845,5.49025931 C19.8942332,5.5177348 18.2505925,7.89255598 14.2044766,9.54493631 Z" id="Dribbble-icon"></path>
        </g>
    </g>
</svg>