<?xml version="1.0" encoding="UTF-8"?>
<svg width="24px" height="23px" viewBox="0 0 24 23" version="1.1" xmlns="http://www.w3.org/2000/svg" xmlns:xlink="http://www.w3.org/1999/xlink">
    <!-- Generator: Sketch 48.2 (47327) - http://www.bohemiancoding.com/sketch -->
    <title>icon/16x16/linkedin</title>
    <desc>Created with Sketch.</desc>
    <defs></defs>
    <g id="_navigation/side-menu:default" stroke="none" stroke-width="1" fill="none" fill-rule="evenodd" transform="translate(-38.000000, -772.000000)">
        <g id="icon/16x16/linkedin" transform="translate(38.000000, 772.000000)" fill="#B0B7C2">
            <path d="M0.698181818,0.625454545 C1.16363869,0.208482764 1.77454167,0 2.53090909,0 C3.28727651,0 3.89817949,0.208482764 4.36363636,0.625454545 C4.82909324,1.04242633 5.06181818,1.58060276 5.06181818,2.24 C5.06181818,2.8800032 4.82909324,3.40848276 4.36363636,3.82545455 C3.89817949,4.24242633 3.28727651,4.45090909 2.53090909,4.45090909 C1.77454167,4.45090909 1.16363869,4.24242633 0.698181818,3.82545455 C0.232724945,3.40848276 0,2.8800032 0,2.24 C0,1.58060276 0.232724945,1.04242633 0.698181818,0.625454545 Z M4.56727273,6.86545455 L4.56727273,22.9818182 L0.465454545,22.9818182 L0.465454545,6.86545455 L4.56727273,6.86545455 Z M22.3418182,8.46545455 C23.4472783,9.68727884 24,11.4036253 24,13.6145455 L24,22.9818182 L19.9272727,22.9818182 L19.9272727,14.08 C19.9272727,12.7999936 19.5975791,11.8060641 18.9381818,11.0981818 C18.2787846,10.3902995 17.3769754,10.0363636 16.2327273,10.0363636 C15.0690851,10.0363636 14.1381853,10.4145417 13.44,11.1709091 C12.7418147,11.9272765 12.3927273,13.0133263 12.3927273,14.4290909 L12.3927273,22.9818182 L8.29090909,22.9818182 L8.29090909,6.86545455 L12.3927273,6.86545455 L12.3927273,10.0945455 C12.8193961,9.00847942 13.5224193,8.16000305 14.5018182,7.54909091 C15.481217,6.93817876 16.6109027,6.63272727 17.8909091,6.63272727 C19.7527366,6.63272727 21.2363581,7.24363025 22.3418182,8.46545455 Z" id="in"></path>
        </g>
    </g>
</svg>