<?xml version="1.0" encoding="UTF-8"?>
<svg width="24px" height="21px" viewBox="0 0 24 21" version="1.1" xmlns="http://www.w3.org/2000/svg" xmlns:xlink="http://www.w3.org/1999/xlink">
    <!-- Generator: Sketch 48.2 (47327) - http://www.bohemiancoding.com/sketch -->
    <title>icon/16x16/twitter</title>
    <desc>Created with Sketch.</desc>
    <defs></defs>
    <g id="_navigation/side-menu:default" stroke="none" stroke-width="1" fill="none" fill-rule="evenodd" transform="translate(-38.000000, -837.000000)">
        <g id="icon/16x16/twitter" transform="translate(38.000000, 836.000000)" fill="#B0B7C2">
            <path d="M23.3380504,1.86974341 C22.3858169,2.44774784 21.3336181,2.8681147 20.2090086,3.09303661 C19.3131658,2.1126078 18.0328412,1.5 16.6153846,1.5 C13.8983793,1.5 11.6933757,3.76075348 11.6933757,6.54888794 C11.6933757,6.94426348 11.7356687,7.32874536 11.8202547,7.69848877 C7.72808587,7.48766454 4.10049929,5.4800283 1.67057379,2.42147492 C1.24636211,3.16993298 1.00413852,4.03822124 1.00413852,4.96225937 C1.00413852,6.71357435 1.87306758,8.25919152 3.19504446,9.16464636 C2.38891411,9.14029584 1.62828078,8.91088831 0.963127119,8.53473687 L0.963127119,8.59689477 C0.963127119,11.044122 2.66061464,13.0857208 4.91496008,13.5477398 C4.50228286,13.6662884 4.06653673,13.7252423 3.61733372,13.7252423 C3.30013617,13.7252423 2.99062825,13.6951246 2.69073238,13.6361707 C3.31743786,15.6412437 5.13475556,17.101634 7.28977652,17.1400822 C5.60510507,18.4953809 3.48084266,19.3027928 1.17459216,19.3027928 C0.777294209,19.3027928 0.384481884,19.2797239 0,19.2335861 C2.17873068,20.6638587 4.76821616,21.5001068 7.54802019,21.5001068 C16.6057726,21.5001068 21.5572584,13.8079059 21.5572584,7.13522281 C21.5572584,6.91542734 21.5534136,6.69627266 21.5450832,6.48096281 C22.5069287,5.76838972 23.342536,4.88023656 24,3.8677676 C23.1182549,4.26891037 22.1685846,4.5406109 21.1727765,4.6623635 C22.1897311,4.03822124 22.9702294,3.04818039 23.3380504,1.86974341" id="Twitter"></path>
        </g>
    </g>
</svg>