<?xml version="1.0" encoding="UTF-8" standalone="no"?>
<svg width="42px" height="42px" viewBox="0 0 42 42" version="1.1" xmlns="http://www.w3.org/2000/svg" xmlns:xlink="http://www.w3.org/1999/xlink">
    <!-- Generator: Sketch 44.1 (41455) - http://www.bohemiancoding.com/sketch -->
    <title>back-left</title>
    <desc>Created with Sketch.</desc>
    <defs>
        <rect id="path-1" x="0" y="0" width="40" height="40" rx="20"></rect>
    </defs>
    <g id="GUI" stroke="none" stroke-width="1" fill="none" fill-rule="evenodd">
        <g id="00.-Icons" transform="translate(-833.000000, -215.000000)">
            <g id="Content" transform="translate(99.000000, 36.000000)">
                <g id="back-left" transform="translate(755.000000, 200.000000) rotate(-270.000000) translate(-755.000000, -200.000000) translate(735.000000, 180.000000)">
                    <g id="Combined-Shape-Copy-4">
                        <use fill="#0B1B29" fill-rule="evenodd" xlink:href="#path-1"></use>
                        <rect stroke-opacity="0.2" stroke="#F1F4F9" stroke-width="1" x="-0.5" y="-0.5" width="41" height="41" rx="20.5"></rect>
                    </g>
                    <path d="M20,23.7928932 L12.9104569,17.1464466 C12.7021773,16.9511845 12.3644893,16.9511845 12.1562097,17.1464466 C11.9479301,17.3417088 11.9479301,17.6582912 12.1562097,17.8535534 L19.6228764,24.8535534 C19.7270162,24.9511845 19.8635081,25 20,25 C20.1364919,25 20.2729838,24.9511845 20.3771236,24.8535534 L27.8437903,17.8535534 C28.0520699,17.6582912 28.0520699,17.3417088 27.8437903,17.1464466 C27.6355107,16.9511845 27.2978227,16.9511845 27.0895431,17.1464466 L20,23.7928932 Z" id="Combined-Shape" fill="#FFFFFF" fill-rule="nonzero"></path>
                </g>
            </g>
        </g>
    </g>
</svg>