<?xml version="1.0" encoding="UTF-8"?>
<svg width="24px" height="21px" viewBox="0 0 24 21" version="1.1" xmlns="http://www.w3.org/2000/svg" xmlns:xlink="http://www.w3.org/1999/xlink">
    <!-- Generator: sketchtool 48.2 (47327) - http://www.bohemiancoding.com/sketch -->
    <title>1CBD008B-EEF3-4C91-AF3F-3015DF318BBA</title>
    <desc>Created with sketchtool.</desc>
    <defs></defs>
    <g id="icon/24x24/camera" stroke="none" stroke-width="1" fill="none" fill-rule="evenodd">
        <g fill="#FFFFFF">
            <path d="M15,3.0000028 L16.5,6.00000233 L21,6.00000233 L21,18.0000005 L3,18.0000005 L3,6.00000233 L7.5,6.00000233 L9,3.0000028 L15,3.0000028 Z M15,3.26327577e-06 L9,3.26327577e-06 C7.86546327,-0.00166552826 6.82704086,0.636827749 6.3165,1.65000301 L5.646,3.0000028 L3,3.0000028 C1.34314575,3.0000028 0,4.34314834 0,6.00000233 L0,18.0000005 C0,19.6568545 1.34314575,21 3,21 L21,21 C22.6568542,21 24,19.6568545 24,18.0000005 L24,6.00000233 C24,4.34314834 22.6568542,3.0000028 21,3.0000028 L18.354,3.0000028 L17.6835,1.65000301 C17.1729591,0.636827749 16.1345367,-0.00166552826 15,3.26327582e-06 Z" id="cam_2_2" fill-rule="nonzero"></path>
            <path d="M12.5,8 C14.9852814,8 17,10.0147186 17,12.5 C17,14.9852814 14.9852814,17 12.5,17 C10.0147186,17 8,14.9852814 8,12.5 C8,10.0147186 10.0147186,8 12.5,8 Z M12.5,11 C11.6715729,11 11,11.6715729 11,12.5 C11,13.3284271 11.6715729,14 12.5,14 C13.3284271,14 14,13.3284271 14,12.5 C14,11.6715729 13.3284271,11 12.5,11 Z" id="Combined-Shape" fill-opacity="0.64"></path>
        </g>
    </g>
</svg>