<?xml version="1.0" encoding="UTF-8"?>
<svg width="102px" height="40px" viewBox="0 0 102 40" version="1.1" xmlns="http://www.w3.org/2000/svg" xmlns:xlink="http://www.w3.org/1999/xlink">
    <!-- Generator: sketchtool 49.1 (51147) - http://www.bohemiancoding.com/sketch -->
    <title>40E24AEE-61BA-4119-B8BB-F440D56DAD4F</title>
    <desc>Created with sketchtool.</desc>
    <defs></defs>
    <g id="Symbols" stroke="none" stroke-width="1" fill="none" fill-rule="evenodd">
        <g id="logo/logo-color">
            <g id="logo" fill="#1B69E6">
                <path d="M92.5207123,23.753589 L92.5207123,26.7366027 C93.6681096,24.6330411 95.1979726,23.7607123 97.1097534,23.7607123 L97.1097534,28.5722192 L95.9053699,28.5722192 C94.7771507,28.5722192 93.9311233,28.8401644 93.3667397,29.3755068 C92.8029041,29.9108493 92.5207123,30.8478356 92.5207123,32.1864658 L92.5207123,39.7590685 L87.6155068,39.7590685 L87.6155068,23.753589 L92.5207123,23.753589 Z" id="Fill-3"></path>
                <polygon id="Fill-5" points="59.5471781 39.7611507 54.6419726 39.7611507 54.6419726 23.7606027 59.5471781 23.7606027 59.5471781 30.4389589 64.5093699 23.7556712 71.1066301 23.7556712 64.2507397 31.9304658 71.1066301 39.7611507 64.5953973 39.7611507 59.5471781 33.3649863"></polygon>
                <path d="M41.492274,23.753589 L41.492274,26.1053699 C42.5059726,24.4226301 44.1185753,23.7607123 46.3366575,23.7607123 C48.1728219,23.7607123 49.662137,24.193589 50.8002192,25.4171507 C51.9377534,26.6412603 52.5070685,28.3048219 52.5070685,30.4083836 L52.5070685,39.7590685 L47.6309041,39.7590685 L47.6309041,31.0681096 C47.6309041,30.0352329 47.3580274,29.2368767 46.8128219,28.6730411 C46.2681644,28.1086575 45.5174795,27.8264658 44.5613151,27.8264658 C43.6051507,27.8264658 42.8550137,28.1086575 42.3098082,28.6730411 C41.7651507,29.2368767 41.492274,30.0352329 41.492274,31.0681096 L41.492274,39.7590685 L36.5876164,39.7590685 L36.5876164,23.753589 L41.492274,23.753589 Z" id="Fill-7"></path>
                <polygon id="Fill-9" points="59.5183562 17.9936438 64.4235616 17.9936438 64.4235616 0.000219178082 59.5183562 0.000219178082"></polygon>
                <path d="M46.1589041,8.56120548 C46.2931507,7.83243836 46.6273973,7.23956164 47.1632877,6.7820274 C47.6986301,6.32449315 48.3583562,6.09545205 49.1419178,6.09545205 C49.9260274,6.09545205 50.6049315,6.32449315 51.1786301,6.7820274 C51.7523288,7.23956164 52.0772603,7.83243836 52.1539726,8.56120548 L46.1589041,8.56120548 Z M57.259726,10.046137 C57.259726,7.52449315 56.4849315,5.55408219 54.9364384,4.13435616 C53.3873973,2.71463014 51.4367123,2.0050411 49.0843836,2.0050411 C46.7326027,2.0050411 44.8153425,2.72394521 43.3336986,4.16230137 C41.8515068,5.60065753 41.1106849,7.53380822 41.1106849,9.96230137 C41.1106849,12.3902466 41.8564384,14.3376438 43.3479452,15.8039452 C44.8394521,17.2702466 46.7517808,18.0028493 49.0843836,18.0028493 C50.9775342,18.0028493 52.6126027,17.5223014 53.989589,16.5601096 C55.3665753,15.5984658 56.2843836,14.3327123 56.7430137,12.7639452 L51.4367123,12.7639452 C51.2071233,13.0439452 51.0208219,13.2444932 50.8772603,13.366137 C50.7342466,13.4877808 50.5090411,13.6088767 50.2032877,13.7305205 C49.8975342,13.8516164 49.4339726,13.9124384 48.8120548,13.9124384 C48.1906849,13.9124384 47.6120548,13.6932603 47.0767123,13.2538082 C46.5413699,12.8154521 46.2263014,12.2499726 46.130411,11.5590137 L57.1446575,11.5590137 C57.2213699,11.0921644 57.259726,10.5880548 57.259726,10.046137 L57.259726,10.046137 Z" id="Fill-11"></path>
                <path d="M23.9237808,30.3168767 C24.0580274,29.5881096 24.392274,28.9952329 24.9281644,28.5376986 C25.4635068,28.0801644 26.1232329,27.8511233 26.9067945,27.8511233 C27.6909041,27.8511233 28.3698082,28.0801644 28.9435068,28.5376986 C29.5172055,28.9952329 29.842137,29.5881096 29.9188493,30.3168767 L23.9237808,30.3168767 Z M35.0246027,31.8018082 C35.0246027,29.2801644 34.2498082,27.3097534 32.7013151,25.8900274 C31.152274,24.4703014 29.201589,23.7607123 26.8498082,23.7607123 C24.4974795,23.7607123 22.5807671,24.4796164 21.0985753,25.9179726 C19.6163836,27.3563288 18.8755616,29.2894795 18.8755616,31.7179726 C18.8755616,34.1459178 19.6213151,36.0933151 21.1128219,37.5596164 C22.6043288,39.0259178 24.5166575,39.7590685 26.8498082,39.7590685 C28.742411,39.7590685 30.3774795,39.2779726 31.7544658,38.3163288 C33.1314521,37.354137 34.0492603,36.0883836 34.5078904,34.5196164 L29.201589,34.5196164 C28.972,34.7996164 28.7856986,35.0007123 28.642137,35.1223562 C28.4991233,35.2434521 28.2739178,35.3645479 27.9681644,35.4861918 C27.662411,35.6078356 27.1988493,35.6686575 26.5769315,35.6686575 C25.9555616,35.6686575 25.3769315,35.4489315 24.841589,35.0100274 C24.3062466,34.5711233 23.9911781,34.0056438 23.8952877,33.3146849 L34.9095342,33.3146849 C34.9862466,32.8478356 35.0246027,32.343726 35.0246027,31.8018082 L35.0246027,31.8018082 Z" id="Fill-12"></path>
                <path d="M74.9043288,30.3168767 C75.0380274,29.5881096 75.3728219,28.9952329 75.9081644,28.5376986 C76.4440548,28.0801644 77.1032329,27.8511233 77.8873425,27.8511233 C78.6714521,27.8511233 79.3503562,28.0801644 79.9240548,28.5376986 C80.4977534,28.9952329 80.8226849,29.5881096 80.8988493,30.3168767 L74.9043288,30.3168767 Z M86.0046027,31.8018082 C86.0046027,29.2801644 85.2303562,27.3097534 83.681863,25.8900274 C82.132274,24.4703014 80.182137,23.7607123 77.8298082,23.7607123 C75.4780274,23.7607123 73.5607671,24.4796164 72.0791233,25.9179726 C70.5969315,27.3563288 69.8561096,29.2894795 69.8561096,31.7179726 C69.8561096,34.1459178 70.601863,36.0933151 72.0933699,37.5596164 C73.5848767,39.0259178 75.4972055,39.7590685 77.8298082,39.7590685 C79.7229589,39.7590685 81.3580274,39.2779726 82.7350137,38.3163288 C84.112,37.354137 85.0298082,36.0883836 85.4884384,34.5196164 L80.182137,34.5196164 C79.9525479,34.7996164 79.7662466,35.0007123 79.6226849,35.1223562 C79.4796712,35.2434521 79.2544658,35.3645479 78.9487123,35.4861918 C78.6429589,35.6078356 78.1793973,35.6686575 77.5574795,35.6686575 C76.9361096,35.6686575 76.3574795,35.4489315 75.822137,35.0100274 C75.2867945,34.5711233 74.9711781,34.0056438 74.8758356,33.3146849 L85.8900822,33.3146849 C85.9667945,32.8478356 86.0046027,32.343726 86.0046027,31.8018082 L86.0046027,31.8018082 Z" id="Fill-13"></path>
                <polygon id="Fill-14" points="41.3938082 1.988 36.2310685 9.73265753 41.3938082 17.9934795 35.8869589 17.9934795 33.2765479 13.8345753 30.6951781 17.9934795 25.8475068 17.9934795 31.0392877 10.2488219 25.8475068 1.988 31.3549041 1.988 33.9647671 6.14690411 36.546137 1.988"></polygon>
                <polygon id="Fill-15" points="19.1249315 17.9936438 24.030137 17.9936438 24.030137 1.98816438 19.1249315 1.98816438"></polygon>
                <path d="M10.842411,12.9308493 C10.1350137,13.6097534 9.32241096,13.9489315 8.40405479,13.9489315 C7.48624658,13.9489315 6.67364384,13.6048219 5.96624658,12.9166027 C5.25884932,12.2278356 4.90487671,11.2524932 4.90487671,9.99057534 C4.90487671,8.72865753 5.25884932,7.75824658 5.96624658,7.07934247 C6.67364384,6.40043836 7.48624658,6.06071233 8.40405479,6.06071233 C9.32241096,6.06071233 10.1350137,6.40536986 10.842411,7.09358904 C11.5498082,7.78235616 11.9037808,8.75715068 11.9037808,10.0196164 C11.9037808,11.2815342 11.5498082,12.2519452 10.842411,12.9308493 M14.771726,4.12482192 C13.3569315,2.58564384 11.6226849,2.00482192 9.58652055,2.00482192 C7.54980822,2.00482192 5.99473973,2.57139726 4.90487671,4.08208219 L4.90487671,1.98783562 L0.000219178082,1.98783562 L0.000219178082,19.9308493 L4.90487671,19.9308493 L4.90487671,15.6700274 C6.05227397,17.3527671 7.6029589,18.0031781 9.61063014,18.0031781 C11.6188493,18.0031781 13.3569315,17.4289315 14.771726,15.8996164 C16.1870685,14.3697534 16.8944658,12.4097534 16.8944658,10.0196164 C16.8944658,7.62893151 16.1870685,5.664 14.771726,4.12482192" id="Fill-16"></path>
                <path d="M6.05216438,28.8485479 C6.76010959,28.1696438 7.57216438,27.8304658 8.49052055,27.8304658 C9.40832877,27.8304658 10.2209315,28.1745753 10.9283288,28.8627945 C11.635726,29.5515616 11.9896986,30.5269041 11.9896986,31.7888219 C11.9896986,33.0507397 11.635726,34.0211507 10.9283288,34.7000548 C10.2209315,35.3789589 9.40832877,35.7186849 8.49052055,35.7186849 C7.57216438,35.7186849 6.76010959,35.3740274 6.05216438,34.6858082 C5.34476712,33.9970411 4.99079452,33.0222466 4.99079452,31.7597808 C4.99079452,30.497863 5.34476712,29.5274521 6.05216438,28.8485479 M2.12284932,37.6545753 C3.53764384,39.1937534 5.27189041,39.7745753 7.30805479,39.7745753 C9.34476712,39.7745753 10.8998356,39.208 11.9896986,37.6973151 L11.9896986,39.7915616 L16.8949041,39.7915616 L16.8949041,21.8485479 L11.9896986,21.8485479 L11.9896986,26.1093699 C10.8423014,24.4266301 9.29161644,23.7762192 7.28394521,23.7762192 C5.27572603,23.7762192 3.53764384,24.3504658 2.12284932,25.8797808 C0.707506849,27.4096438 0.000109589041,29.3696438 0.000109589041,31.7597808 C0.000109589041,34.1504658 0.707506849,36.1153973 2.12284932,37.6545753" id="Fill-17"></path>
            </g>
            <rect id="pixel" fill="#6FA6FF" x="98" y="36" width="4" height="4"></rect>
        </g>
    </g>
</svg>