<?xml version="1.0" encoding="UTF-8"?>
<svg width="162px" height="26px" viewBox="0 0 162 26" version="1.1" xmlns="http://www.w3.org/2000/svg" xmlns:xlink="http://www.w3.org/1999/xlink">
    <!-- Generator: Sketch 49.3 (51167) - http://www.bohemiancoding.com/sketch -->
    <title>client-logo copy 2</title>
    <desc>Created with Sketch.</desc>
    <defs>
        <rect id="path-1" x="0" y="0" width="244" height="32"></rect>
    </defs>
    <g id="👶Current" stroke="none" stroke-width="1" fill="none" fill-rule="evenodd" opacity="0.5">
        <g id="01.Homepage-#26" transform="translate(-1056.000000, -2794.000000)">
            <g id="client-logo-copy-2" transform="translate(1015.000000, 2791.000000)">
                <g id="client-logo-placeholder">
                    <mask id="mask-2" fill="white">
                        <use xlink:href="#path-1"></use>
                    </mask>
                    <g id="logo-x32-bg"></g>
                </g>
                <g id="logo-Meetberry" transform="translate(41.000000, 3.000000)" fill="#5A6C89">
                    <path d="M12.8290377,0.180037736 C5.75262264,0.180037736 0.0159433962,5.91671698 0.0159433962,12.9933774 C0.0159433962,20.0697925 5.75262264,25.8064717 12.8290377,25.8064717 C19.9056981,25.8064717 25.6421321,20.0697925 25.6421321,12.9933774 C25.6421321,5.91671698 19.9056981,0.180037736 12.8290377,0.180037736 L12.8290377,0.180037736 Z M16.7295283,16.0429811 C17.0609057,16.5151509 17.2561509,17.0896038 17.2561509,17.7101698 C17.2561509,19.314566 15.9554151,20.6155472 14.3507736,20.6155472 C13.0802075,20.6155472 12.0012075,19.7994906 11.6065472,18.6635849 C11.0588302,18.9993774 10.4152075,19.1931509 9.72620755,19.1931509 C7.73696226,19.1931509 6.12422642,17.5804151 6.12422642,15.5914151 C6.12422642,14.3139811 6.78992453,13.1925472 7.79264151,12.5528491 C7.0965283,11.9631887 6.65428302,11.0828679 6.65428302,10.0990377 C6.65428302,8.32343396 8.09409434,6.88337736 9.87018868,6.88337736 C11.0362642,6.88337736 12.0559057,7.50516981 12.619566,8.4340566 C12.5781132,7.78381132 12.6271698,6.89588679 13.0480755,6.13207547 C13.6004528,5.12935849 14.4118491,4.7204717 14.4118491,4.7204717 L16.6610943,5.32313208 C16.6610943,5.32313208 15.6279623,5.772 14.6122453,6.88337736 C13.9951132,7.55864151 13.7341321,8.3474717 13.6249811,8.84833962 C14.0436792,8.69577358 14.4952453,8.61188679 14.9666792,8.61188679 C17.134,8.61188679 18.8914528,10.3690943 18.8914528,12.5366604 C18.8914528,14.0701698 18.0113774,15.3971509 16.7295283,16.0429811 L16.7295283,16.0429811 Z" id="Fill-1"></path>
                    <path d="M9.72620755,13.1761132 C8.39235849,13.1761132 7.31090566,14.2573208 7.31090566,15.5914151 C7.31090566,16.9252642 8.39235849,18.0069623 9.72620755,18.0069623 C11.0600566,18.0069623 12.1415094,16.9252642 12.1415094,15.5914151 C12.1415094,14.2573208 11.0600566,13.1761132 9.72620755,13.1761132" id="Fill-2"></path>
                    <path d="M9.87018868,12.1226226 C10.9876981,12.1226226 11.893283,11.2165472 11.893283,10.0987925 C11.893283,8.9815283 10.9876981,8.0759434 9.87018868,8.0759434 C8.75267925,8.0759434 7.84684906,8.9815283 7.84684906,10.0987925 C7.84684906,11.2165472 8.75267925,12.1226226 9.87018868,12.1226226" id="Fill-3"></path>
                    <path d="M14.3510189,16.064566 C13.4417547,16.064566 12.7054151,16.8016415 12.7054151,17.7101698 C12.7054151,18.6189434 13.4417547,19.3557736 14.3510189,19.3557736 C15.2595472,19.3557736 15.9963774,18.6189434 15.9963774,17.7101698 C15.9963774,16.8016415 15.2595472,16.064566 14.3510189,16.064566" id="Fill-4"></path>
                    <path d="M14.966434,9.9045283 C13.5131321,9.9045283 12.3345472,11.0831132 12.3345472,12.5366604 C12.3345472,13.9902075 13.5131321,15.1685472 14.966434,15.1685472 C16.4197358,15.1685472 17.598566,13.9902075 17.598566,12.5366604 C17.598566,11.0831132 16.4197358,9.9045283 14.966434,9.9045283" id="Fill-5"></path>
                    <path d="M33.1090377,7.65577358 L37.2013396,7.65577358 L37.2013396,9.41764151 L37.2511321,9.41764151 C38.0196038,8.12671698 39.3843585,7.28367925 40.9475472,7.28367925 C42.5590566,7.28367925 43.9981321,7.80466038 44.6930189,9.36784906 C45.7102075,8.00333962 46.9748868,7.28367925 48.7114906,7.28367925 C52.8045283,7.28367925 53.2502075,10.3850377 53.2502075,12.8410566 L53.2502075,20.5306792 L49.0328113,20.5306792 L49.0328113,12.964434 C49.0328113,11.5753962 48.3641698,10.7568868 47.2726604,10.7568868 C45.4614906,10.7568868 45.2873396,12.1461698 45.2873396,14.2293585 L45.2873396,20.5306792 L41.0709245,20.5306792 L41.0709245,13.2131509 C41.0709245,11.6997547 40.6237736,10.7568868 39.4839434,10.7568868 C37.9698113,10.7568868 37.3254528,11.6251887 37.3254528,14.2538868 L37.3254528,20.5306792 L33.1090377,20.5306792 L33.1090377,7.65577358" id="Fill-6"></path>
                    <path d="M59.6749057,15.1221887 C59.7492264,16.8850377 60.7646981,18.0501321 62.5513396,18.0501321 C63.568283,18.0501321 64.5602075,17.5791887 64.957566,16.6363208 L68.901717,16.6363208 C68.133,19.6133208 65.3794528,20.9027736 62.502283,20.9027736 C58.3094151,20.9027736 55.4567736,18.3721887 55.4567736,14.0559434 C55.4567736,10.1117925 58.6079245,7.28367925 62.4031887,7.28367925 C67.0169623,7.28367925 69.3236038,10.7568868 69.1249245,15.1221887 L59.6749057,15.1221887 L59.6749057,15.1221887 Z M64.9075283,12.7667358 C64.8339434,11.3276604 63.8160189,10.1363208 62.4031887,10.1363208 C60.9153019,10.1363208 59.9233774,11.204283 59.6749057,12.7667358 L64.9075283,12.7667358 L64.9075283,12.7667358 Z" id="Fill-7"></path>
                    <path d="M75.1932264,15.1221887 C75.2675472,16.8850377 76.2837547,18.0501321 78.0694151,18.0501321 C79.0873396,18.0501321 80.0792642,17.5791887 80.4766226,16.6363208 L84.4197925,16.6363208 C83.6513208,19.6133208 80.8975283,20.9027736 78.0203585,20.9027736 C73.8284717,20.9027736 70.9758302,18.3721887 70.9758302,14.0559434 C70.9758302,10.1117925 74.1252642,7.28367925 77.9215094,7.28367925 C82.535283,7.28367925 84.8416792,10.7568868 84.643,15.1221887 L75.1932264,15.1221887 L75.1932264,15.1221887 Z M80.4265849,12.7667358 C80.3522642,11.3276604 79.3350755,10.1363208 77.9215094,10.1363208 C76.4333774,10.1363208 75.4409623,11.204283 75.1932264,12.7667358 L80.4265849,12.7667358 L80.4265849,12.7667358 Z" id="Fill-8"></path>
                    <path d="M94.8786604,10.3850377 L92.2737547,10.3850377 L92.2737547,16.2389623 C92.2737547,17.2561509 92.8690566,17.4793585 93.7871509,17.4793585 C94.134717,17.4793585 94.5068113,17.4303019 94.8786604,17.4303019 L94.8786604,20.5306792 C94.1094528,20.5552075 93.34,20.6550377 92.5715283,20.6550377 C88.9746981,20.6550377 88.0573396,19.6133208 88.0573396,16.1148491 L88.0573396,10.3850377 L85.9233774,10.3850377 L85.9233774,7.65577358 L88.0573396,7.65577358 L88.0573396,3.76141509 L92.2737547,3.76141509 L92.2737547,7.65577358 L94.8786604,7.65577358 L94.8786604,10.3850377" id="Fill-9"></path>
                    <path d="M97.7053019,2.73539623 L101.921717,2.73539623 L101.921717,8.98692453 L101.971509,8.98692453 C102.839811,7.79632075 104.054698,7.20126415 105.643396,7.20126415 C109.289038,7.20126415 111.075679,10.3759623 111.075679,13.7257925 C111.075679,17.3469057 109.36434,20.8201132 105.320358,20.8201132 C103.832472,20.8201132 102.592075,20.1750189 101.773566,18.9591509 L101.723774,18.9591509 L101.723774,20.447283 L97.7053019,20.447283 L97.7053019,2.73539623 L97.7053019,2.73539623 Z M101.773566,13.874434 C101.773566,16.1320189 102.417925,17.5946415 104.327943,17.5946415 C106.21417,17.5946415 106.858283,15.6348302 106.858283,13.874434 C106.858283,12.2369245 106.21417,10.4267358 104.352472,10.4267358 C103.211906,10.4267358 101.773566,11.2204717 101.773566,13.874434 L101.773566,13.874434 Z" id="Fill-10"></path>
                    <path d="M116.566585,15.0405094 C116.641151,16.8016415 117.657358,17.9674717 119.443755,17.9674717 C120.460943,17.9674717 121.452623,17.4957925 121.849981,16.5539057 L125.794132,16.5539057 C125.02566,19.5299245 122.272849,20.8201132 119.394698,20.8201132 C115.202075,20.8201132 112.35017,18.2895283 112.35017,13.9735283 C112.35017,10.0293774 115.498868,7.20126415 119.295113,7.20126415 C123.908887,7.20126415 126.216019,10.6744717 126.018321,15.0405094 L116.566585,15.0405094 L116.566585,15.0405094 Z M121.800925,12.6833396 C121.725868,11.245 120.708679,10.0539057 119.295113,10.0539057 C117.806981,10.0539057 116.814321,11.1208868 116.566585,12.6833396 L121.800925,12.6833396 L121.800925,12.6833396 Z" id="Fill-11"></path>
                    <path d="M127.548887,7.57311321 L131.641679,7.57311321 L131.641679,9.83069811 L131.691717,9.83069811 C132.311302,8.19367925 133.750377,7.32537736 135.562283,7.32537736 C135.883604,7.32537736 136.230925,7.34990566 136.553962,7.4244717 L136.553962,11.2695283 C136.008698,11.1208868 135.512245,11.0210566 134.941717,11.0210566 C132.857547,11.0210566 131.766774,12.4608679 131.766774,14.0731132 L131.766774,20.447283 L127.548887,20.447283 L127.548887,7.57311321" id="Fill-12"></path>
                    <path d="M138.115679,7.57311321 L142.209453,7.57311321 L142.209453,9.83069811 L142.258509,9.83069811 C142.878094,8.19367925 144.317906,7.32537736 146.129075,7.32537736 C146.451132,7.32537736 146.797717,7.34990566 147.121491,7.4244717 L147.121491,11.2695283 C146.574509,11.1208868 146.079038,11.0210566 145.508509,11.0210566 C143.425075,11.0210566 142.333566,12.4608679 142.333566,14.0731132 L142.333566,20.447283 L138.115679,20.447283 L138.115679,7.57311321" id="Fill-13"></path>
                    <path d="M156.246019,21.589566 C155.228094,24.4166981 153.715679,24.7635283 150.863038,24.7635283 L148.877717,24.7635283 L148.877717,21.3408491 L150.342057,21.3408491 C151.309453,21.3408491 152.029604,20.7955849 152.029604,19.9020189 C152.029604,19.2078679 151.210358,17.2235283 150.961887,16.5276604 L147.638302,7.57311321 L152.103189,7.57311321 L154.533943,15.9578679 L154.583,15.9578679 L157.015472,7.57311321 L161.330736,7.57311321 L156.246019,21.589566" id="Fill-14"></path>
                </g>
            </g>
        </g>
    </g>
</svg>