<?xml version="1.0" encoding="UTF-8"?>
<svg width="173px" height="32px" viewBox="0 0 173 32" version="1.1" xmlns="http://www.w3.org/2000/svg" xmlns:xlink="http://www.w3.org/1999/xlink">
    <!-- Generator: Sketch 49.3 (51167) - http://www.bohemiancoding.com/sketch -->
    <title>client-logo copy 2</title>
    <desc>Created with Sketch.</desc>
    <defs>
        <rect id="path-1" x="0" y="0" width="244" height="32"></rect>
    </defs>
    <g id="👶Current" stroke="none" stroke-width="1" fill="none" fill-rule="evenodd" opacity="0.5">
        <g id="01.Homepage-#26" transform="translate(-561.000000, -2791.000000)">
            <g id="client-logo-copy-2" transform="translate(525.000000, 2791.000000)">
                <g id="client-logo-placeholder">
                    <mask id="mask-2" fill="white">
                        <use xlink:href="#path-1"></use>
                    </mask>
                    <g id="logo-x32-bg"></g>
                    <g id="Logo" mask="url(#mask-2)">
                        <g transform="translate(36.000000, 0.000000)">
                            <g id="-g-woordmerk" transform="translate(39.262721, 8.674157)">
                                <path d="M5.5811825,6.02928032 C4.84840991,6.02928032 4.2823344,6.4534823 3.88208776,7.30275553 C3.48184112,8.1511595 3.28475655,9.41768058 3.29170226,11.1023188 C3.27173334,14.301219 3.92636668,15.8997998 5.25560226,15.8997998 C5.55426787,15.8997998 5.8355692,15.8259122 6.10037446,15.6763984 C6.3643115,15.5268845 6.58657428,15.3113065 6.76629457,15.0296642 C6.94601486,14.7471526 7.05975089,14.4194392 7.10750266,14.0465239 L7.10750266,6.74207873 C6.75500779,6.26659003 6.2462344,6.02928032 5.5811825,6.02928032 M10.3989018,15.6094649 C10.5916453,15.8989305 10.9397991,16.0432288 11.4416268,16.0432288 L11.4416268,16.4804697 C11.0005741,16.4404835 10.56994,16.4196211 10.1497244,16.4196211 C8.92206986,16.4196211 7.90799594,16.5152404 7.10750266,16.7047405 L7.10750266,14.9123132 C6.63953533,16.1684031 5.73746102,16.7968827 4.40127972,16.7968827 C3.55303467,16.7968827 2.8089753,16.5908666 2.16736517,16.1805728 C1.52662326,15.7694099 1.02826844,15.1348454 0.672300717,14.275141 C0.316332989,13.4163058 0.140953768,12.3418926 0.147899479,11.0510321 C0.140953768,9.82884357 0.336301911,8.7970244 0.733075695,7.9547053 C1.12984948,7.1123862 1.67942892,6.48129882 2.38094581,6.05970464 C3.08333091,5.63897972 3.88903348,5.42861726 4.7980535,5.42861726 C5.82167777,5.42861726 6.59178356,5.68939717 7.10750266,6.21269552 L7.10750266,2.66782731 C7.10750266,2.02283167 7.00765806,1.55603564 6.80710063,1.26656994 C6.60741142,0.97797351 6.26273047,0.833675294 5.77479422,0.833675294 L5.77479422,0.396434316 C6.2149787,0.436420568 6.64648104,0.457282961 7.06669661,0.457282961 C8.28740545,0.457282961 9.30147936,0.359055863 10.1089184,0.161732399 L10.1089184,14.2090767 C10.1089184,14.8540724 10.2052901,15.3208684 10.3989018,15.6094649" id="Fill-1" fill="#5A6C89"></path>
                                <path d="M18.6501469,6.94609555 C18.4096517,6.226343 18.0450018,5.86646673 17.5561973,5.86646673 C17.0613154,5.86646673 16.6489137,6.17331775 16.3198606,6.78788907 C15.9908075,7.40246038 15.7893819,8.35865338 15.7147155,9.65559878 L18.9809365,9.65559878 C19.0009054,8.56901584 18.8906422,7.66584809 18.6501469,6.94609555 M15.7251341,11.0307782 C15.7251341,11.9548083 15.8536297,12.720632 16.1114893,13.3282491 C16.3693488,13.9358663 16.7036112,14.3809307 17.1134082,14.662573 C17.5240734,14.9442153 17.9633897,15.0850365 18.431357,15.0850365 C19.5773994,15.0850365 20.496838,14.528706 21.1888046,13.4143065 L21.5551909,13.5368731 C21.3789434,14.1071118 21.105456,14.6391028 20.7355969,15.1311076 C20.3666059,15.6231123 19.8977704,16.0238441 19.3316949,16.3333029 C18.7656194,16.6418925 18.1196682,16.7966219 17.3938413,16.7966219 C16.4370695,16.7966219 15.5975066,16.5932136 14.8751526,16.1855277 C14.1527986,15.7778417 13.5901959,15.1580548 13.1864764,14.3261669 C12.7827569,13.494279 12.5813313,12.4607213 12.5813313,11.2246246 C12.5813313,9.96158054 12.7983848,8.89672925 13.2324918,8.03093996 C13.6665987,7.16515067 14.2665346,6.51493943 15.0331675,6.08030625 C15.7998005,5.64567307 16.6845105,5.42835648 17.6890341,5.42835648 C20.2997535,5.42835648 21.6055473,6.96956574 21.6055473,10.0528535 L15.7555216,10.0528535 C15.7355526,10.2571311 15.7251341,10.583106 15.7251341,11.0307782" id="Fill-3" fill="#5A6C89"></path>
                                <path d="M37.040308,2.3110804 C36.8302002,2.39974557 36.6860767,2.56229837 36.6079374,2.79960809 C36.5297981,3.03778707 36.4907285,3.41765647 36.4907285,3.94095482 L36.4907285,14.2904401 C36.4907285,14.8137384 36.5297981,15.1936078 36.6079374,15.4317868 C36.6860767,15.6690965 36.8302002,15.8325186 37.040308,15.9203145 C37.2504157,16.0089797 37.5898874,16.0628742 38.0578547,16.0837366 L38.0578547,16.5009844 C37.3658882,16.4601289 36.3110082,16.4401358 34.8932148,16.4401358 C33.4823671,16.4401358 32.3910221,16.4601289 31.6174435,16.5009844 L31.6174435,16.0837366 C32.0784651,16.0628742 32.4162003,16.0089797 32.629781,15.9203145 C32.8433616,15.8325186 32.9892216,15.6690965 33.0673608,15.4317868 C33.1455001,15.1936078 33.1845697,14.8137384 33.1845697,14.2904401 L33.1845697,9.27911952 L27.659256,9.27911952 L27.659256,14.2904401 C27.659256,14.8137384 27.6965892,15.1936078 27.7712556,15.4317868 C27.845922,15.6690965 27.9883091,15.8325186 28.1984169,15.9203145 C28.4093929,16.0089797 28.7479963,16.0628742 29.2159637,16.0837366 L29.2159637,16.5009844 C28.4771136,16.4601289 27.4291793,16.4401358 26.0721609,16.4401358 C24.5866468,16.4401358 23.491829,16.4601289 22.785971,16.5009844 L22.785971,16.0837366 C23.2469926,16.0628742 23.5829914,16.0089797 23.7930992,15.9203145 C24.003207,15.8325186 24.1473305,15.6690965 24.2254698,15.4317868 C24.303609,15.1936078 24.3426786,14.8137384 24.3426786,14.2904401 L24.3426786,3.94095482 C24.3426786,3.41765647 24.303609,3.03778707 24.2254698,2.79960809 C24.1473305,2.56229837 24.003207,2.39974557 23.7930992,2.3110804 C23.5829914,2.22241523 23.2469926,2.16852071 22.785971,2.14852759 L22.785971,1.73041047 C23.4848832,1.77126599 24.5797011,1.79125911 26.0721609,1.79125911 C27.4291793,1.79125911 28.4771136,1.77126599 29.2159637,1.73041047 L29.2159637,2.14852759 C28.7479963,2.16852071 28.4093929,2.22241523 28.1984169,2.3110804 C27.9883091,2.39974557 27.845922,2.56229837 27.7712556,2.79960809 C27.6965892,3.03778707 27.659256,3.41765647 27.659256,3.94095482 L27.659256,8.86100241 L33.1845697,8.86100241 L33.1845697,3.94095482 C33.1845697,3.41765647 33.1455001,3.03778707 33.0673608,2.79960809 C32.9892216,2.56229837 32.8433616,2.39974557 32.629781,2.3110804 C32.4162003,2.22241523 32.0784651,2.16852071 31.6174435,2.14852759 L31.6174435,1.73041047 C32.3910221,1.77126599 33.4823671,1.79125911 34.8932148,1.79125911 C36.3110082,1.79125911 37.3658882,1.77126599 38.0578547,1.73041047 L38.0578547,2.14852759 C37.5898874,2.16852071 37.2504157,2.22241523 37.040308,2.3110804" id="Fill-5" fill="#5A6C89"></path>
                                <path d="M49.6616213,15.6302403 C49.8613105,15.9188367 50.2059914,16.063135 50.6939277,16.063135 L50.6939277,16.5012452 C50.2598207,16.4603897 49.8291866,16.4403966 49.4020253,16.4403966 C48.1813164,16.4403966 47.1672425,16.5386237 46.3598035,16.7350779 L46.3598035,14.8513777 C45.7294802,16.1483231 44.6103524,16.7967958 43.0024201,16.7967958 C41.9649044,16.7967958 41.20869,16.5247154 40.733777,15.9814239 C40.5028321,15.7232518 40.3387396,15.3807609 40.2397633,14.9530818 C40.1416551,14.5254028 40.0930351,13.964726 40.0930351,13.2719207 L40.0930351,7.9850427 C40.0930351,7.34700119 39.9923223,6.88194369 39.7926331,6.58987019 C39.5920756,6.2977967 39.2482629,6.15175995 38.7594584,6.15175995 L38.7594584,5.7136497 C39.2005111,5.75450522 39.6311453,5.77449835 40.052229,5.77449835 C41.2659922,5.77449835 42.2800661,5.67974831 43.0944508,5.48937898 L43.0944508,14.1272788 C43.0944508,14.7053409 43.180404,15.1417126 43.3531785,15.4363939 C43.5268213,15.7319445 43.854138,15.8797198 44.3351285,15.8797198 C44.7015148,15.8797198 45.0392501,15.7728 45.347466,15.5589605 C45.6565502,15.345121 45.9022548,15.0530475 46.0854479,14.68274 C46.2686411,14.3124325 46.3598035,13.9038773 46.3598035,13.4553359 L46.3598035,7.9850427 C46.3598035,7.34700119 46.2599589,6.88194369 46.0602697,6.58987019 C45.8597123,6.2977967 45.5158995,6.15175995 45.0270951,6.15175995 L45.0270951,5.7136497 C45.4681478,5.75450522 45.8987819,5.77449835 46.3189975,5.77449835 C47.5336288,5.77449835 48.5477027,5.67974831 49.3612192,5.48937898 L49.3612192,14.2298522 C49.3612192,14.8748479 49.461932,15.3416439 49.6616213,15.6302403" id="Fill-7" fill="#5A6C89"></path>
                                <path d="M60.1251624,5.77458527 C60.8240746,5.77458527 61.3597626,5.75459215 61.7330947,5.71373663 L61.7330947,6.13098448 C61.4413748,6.20574139 61.1783059,6.37872539 60.9438882,6.65080576 C60.7103386,6.92201687 60.4915487,7.34708812 60.2875184,7.92428098 L56.5646169,18.4163259 C56.2867884,19.1430326 55.9820453,19.6385144 55.6495194,19.9036407 C55.242327,20.2496087 54.6354454,20.4234619 53.8280065,20.4234619 C53.4685659,20.4234619 53.1143346,20.3634826 52.7644443,20.2443931 C52.4154223,20.1261728 52.1271753,19.9410191 51.8997032,19.6898011 C51.6730994,19.4385832 51.5593634,19.1256473 51.5593634,18.752732 C51.5593634,18.325053 51.712169,17.9816927 52.0169121,17.7235206 C52.3225234,17.4653485 52.7262429,17.3366971 53.2280706,17.3366971 C53.6960379,17.3366971 54.073711,17.4523095 54.361958,17.6826651 C54.6502051,17.91389 54.7943286,18.2363878 54.7943286,18.6510278 C54.7943286,18.9361472 54.7014297,19.2021427 54.5147637,19.4498836 C54.3280977,19.6984938 54.0719746,19.8827783 53.7463943,20.0053448 C53.8488436,20.0192531 54.0077267,20.0262072 54.2247802,20.0262072 C55.0929942,20.0262072 55.7276586,19.4759616 56.1279053,18.3754704 L56.4630359,17.3775526 L52.0377492,7.32274866 C51.8206958,6.8411751 51.6053787,6.52476214 51.3909298,6.37524833 C51.1773492,6.22660378 50.9620321,6.15184687 50.7449786,6.15184687 L50.7449786,5.71373663 C51.6609444,5.7945784 52.6142433,5.83543392 53.6040072,5.83543392 C54.4253377,5.83543392 55.3916598,5.7945784 56.5038419,5.71373663 L56.5038419,6.15184687 C56.2051763,6.15184687 55.9716267,6.1614088 55.802325,6.1822712 C55.6321551,6.20226432 55.4880316,6.25355104 55.3690863,6.33526208 C55.2510092,6.41610385 55.1911024,6.5491016 55.1911024,6.7325168 C55.1911024,6.89506961 55.2388542,7.09239307 55.3334895,7.32274866 L57.887775,13.4858471 L59.3116459,9.47244436 C59.5356451,8.80658633 59.6467765,8.25025586 59.6467765,7.80171442 C59.6467765,7.27233121 59.5122033,6.86986089 59.2404523,6.59430345 C58.9695696,6.31961528 58.5892919,6.16488587 58.1013556,6.13098448 L58.1013556,5.71373663 C58.7525161,5.75459215 59.4271183,5.77458527 60.1251624,5.77458527" id="Fill-9" fill="#5A6C89"></path>
                                <path d="M63.9456511,15.2991368 C64.3971224,15.9780338 65.0361279,16.3179169 65.8635358,16.3179169 C66.2707281,16.3179169 66.6180137,16.1936118 66.9062608,15.9458709 C67.1945078,15.69813 67.3386313,15.326084 67.3386313,14.8306022 C67.3386313,14.4437787 67.2526781,14.0969414 67.0790353,13.7918289 C66.9062608,13.4858471 66.6874708,13.214636 66.4235338,12.9764571 C66.1587285,12.7391473 65.7619548,12.4131725 65.2323442,11.9985324 C64.5881295,11.4761033 64.1054025,11.0649403 63.7832951,10.7659127 C63.4603195,10.4668851 63.1842275,10.1122244 62.9532826,9.70193068 C62.7232059,9.29076769 62.6077334,8.82397166 62.6077334,8.30067331 C62.6077334,7.70348732 62.7700894,7.18714311 63.0956697,6.75250993 C63.4212499,6.31787675 63.8588297,5.9884248 64.4084092,5.76415408 C64.9579886,5.53988336 65.5553198,5.42861726 66.1995346,5.42861726 C66.7282769,5.42861726 67.2136085,5.49294297 67.653793,5.6215944 C68.0948457,5.75111508 68.4412631,5.89975963 68.6921769,6.07013584 C68.8276183,6.16488587 68.9500365,6.21269552 69.0585632,6.21269552 C69.3164227,6.21269552 69.4787788,5.95800048 69.5464995,5.44861039 L70.0049164,5.44861039 C69.9502189,6.14836981 69.9233043,7.37055831 69.9233043,9.11604516 L69.4648873,9.11604516 C69.3433374,8.20592328 69.06985,7.44009962 68.6461616,6.81857417 C68.2224731,6.19704872 67.6069094,5.88672063 66.7994705,5.88672063 C66.3862006,5.88672063 66.0467289,6.00581013 65.7819237,6.24311984 C65.5179866,6.48042956 65.3851499,6.80640444 65.3851499,7.22104449 C65.3851499,7.68957906 65.5414284,8.09378792 65.8531172,8.43367106 C66.1656743,8.77268494 66.5416109,9.09865983 66.9826636,9.41159572 C67.4237163,9.72366234 67.7458237,9.95749499 67.9489857,10.1139629 C68.5194023,10.541642 68.9717418,10.9154265 69.3077406,11.2344473 C69.6428712,11.553468 69.9163586,11.9150828 70.1264664,12.3192917 C70.3365742,12.7235005 70.4416281,13.1868195 70.4416281,13.7101179 C70.4416281,14.3212121 70.2636442,14.8610265 69.9076765,15.3295611 C69.5517087,15.7980957 69.0715864,16.1597105 68.4681777,16.4144055 C67.864769,16.6691005 67.2031899,16.7968827 66.4843088,16.7968827 C65.7445905,16.7968827 65.1003757,16.6508459 64.5507963,16.3587725 C64.1375264,16.14841 63.8119462,16.0023732 63.5740556,15.9206622 C63.5332495,15.9067539 63.4993892,15.8997998 63.4724745,15.8997998 C63.2484753,15.8997998 63.0861193,16.14841 62.9845383,16.6438918 L62.5261213,16.6438918 C62.5808188,15.8493824 62.6077334,14.4602947 62.6077334,12.4774982 L63.0652822,12.4774982 C63.2015918,13.6796935 63.4941799,14.6202397 63.9456511,15.2991368" id="Fill-11" fill="#5A6C89"></path>
                                <path d="M82.8343406,15.7116906 C82.9767277,15.8716356 83.1599209,15.9881173 83.3839201,16.0628742 L83.3839201,16.5009844 C82.271738,16.4470899 81.5424382,16.4192734 81.1960209,16.4192734 C80.7349992,16.4192734 79.8398706,16.4470899 78.510635,16.5009844 L78.510635,16.0628742 C78.9239049,16.0628742 79.1305398,15.9307457 79.1305398,15.6656195 C79.1305398,15.5778236 79.0966795,15.4726423 79.0289588,15.3500758 L76.9634778,11.6217924 C76.8280364,11.3905675 76.6839129,11.2297532 76.5311072,11.137611 C76.3783015,11.046338 76.1838216,10.9933128 75.945931,10.9802738 L75.945931,14.5659975 C75.945931,14.952821 75.986737,15.2553257 76.0683492,15.4726423 C76.1499613,15.6899589 76.2801934,15.8420805 76.4599137,15.9307457 C76.6396339,16.0194109 76.8853385,16.0628742 77.1978955,16.0628742 L77.1978955,16.5009844 C75.8139625,16.4470899 74.9118881,16.4192734 74.4916726,16.4192734 C74.0098138,16.4192734 73.0495692,16.4470899 71.6118068,16.5009844 L71.6118068,16.0628742 C71.9443328,16.0628742 72.2056652,16.0194109 72.3958041,15.9307457 C72.5850747,15.8420805 72.7239889,15.6899589 72.8125468,15.4726423 C72.9011046,15.2553257 72.9445153,14.952821 72.9445153,14.5659975 L72.9445153,2.6674796 C72.9445153,2.02248397 72.8446707,1.55568793 72.6449815,1.2670915 C72.444424,0.978495069 72.1006113,0.834196854 71.6118068,0.834196854 L71.6118068,0.396086609 C72.0528595,0.436942128 72.4834937,0.456935254 72.9037092,0.456935254 C74.1252863,0.456935254 75.1393602,0.358708156 75.945931,0.161384693 L75.945931,10.5621567 C76.2246277,10.5352094 76.4616501,10.4821842 76.6587346,10.4048195 C76.854951,10.3265855 77.0346713,10.2022804 77.1978955,10.0327735 L78.7745721,8.494172 C79.2425394,8.02563744 79.4769572,7.60143545 79.4769572,7.22069679 C79.4769572,6.90167603 79.325888,6.64524246 79.0237495,6.45226533 C78.7224793,6.25841893 78.3335194,6.15149917 77.8594746,6.13150604 L77.8594746,5.71338892 C78.632185,5.75424444 79.4465697,5.77423757 80.3008923,5.77423757 C81.4408572,5.77423757 82.2543737,5.75424444 82.7431782,5.71338892 L82.7431782,6.13150604 C81.914902,6.31405198 81.0466881,6.85125859 80.1385362,7.74051807 L78.8049596,9.12612865 L82.3055983,14.9728142 C82.5157061,15.3057432 82.6919535,15.5517456 82.8343406,15.7116906" id="Fill-13" fill="#5A6C89"></path>
                                <path d="M89.1578034,10.638739 C88.9581142,10.798684 88.6707354,10.9933997 88.2982716,11.2246246 C87.8572189,11.5297371 87.5116697,11.8748358 87.2598877,12.2581823 C87.0089738,12.642398 86.883951,13.1196252 86.883951,13.689864 C86.883951,14.2331554 87.0028964,14.6391028 87.2399188,14.9068369 C87.4769412,15.1754402 87.7894982,15.3093072 88.1758534,15.3093072 C88.7254329,15.3093072 89.1968731,15.0241878 89.590174,14.4539491 L89.590174,10.1754201 C89.5016162,10.3249339 89.3574926,10.478794 89.1578034,10.638739 M89.1777723,6.3350013 C88.9034167,6.00207228 88.474519,5.83604241 87.8910792,5.83604241 C87.6201965,5.83604241 87.3484455,5.87776719 87.0775628,5.96295529 C86.8058118,6.0481434 86.5818126,6.17505629 86.4055651,6.34543249 C86.7919204,6.47408391 87.0940588,6.67575371 87.3111123,6.95131114 C87.5281658,7.22599931 87.6366925,7.57109806 87.6366925,7.98486884 C87.6366925,8.26998821 87.5672354,8.52642178 87.4283212,8.75416957 C87.289407,8.98191736 87.090586,9.16185549 86.8327264,9.29398398 C86.5748669,9.42611247 86.2805423,9.49304597 85.9480164,9.49304597 C85.500018,9.49304597 85.1423138,9.3400551 84.8740357,9.03407334 C84.6066258,8.72896085 84.4729208,8.34474512 84.4729208,7.88316468 C84.4729208,7.16341213 84.8592761,6.57926514 85.6319865,6.1307237 C86.4802315,5.66218913 87.5385844,5.42835648 88.807045,5.42835648 C90.2309159,5.42835648 91.2449898,5.74042311 91.8492667,6.36542562 C92.1409866,6.65749911 92.337203,7.02085245 92.438784,7.45548563 C92.5403651,7.89011881 92.5915897,8.49773599 92.5915897,9.27920645 L92.5915897,14.952908 C92.5915897,15.2927911 92.6237136,15.5318394 92.6879614,15.670922 C92.7530775,15.8100046 92.8659453,15.8795459 93.0291695,15.8795459 C93.2531687,15.8795459 93.5110283,15.7613257 93.8027482,15.5231467 L94.0163288,15.8795459 C93.6976943,16.1446721 93.3512769,16.3385185 92.9779449,16.4602158 C92.6054811,16.5827824 92.1574827,16.643631 91.6356861,16.643631 C90.9298281,16.643631 90.4210548,16.4880324 90.1093659,16.1750965 C89.7968089,15.8630298 89.6413986,15.4553439 89.6413986,14.952908 C89.3019269,15.5161926 88.8574014,15.9395253 88.3078219,16.2211676 C87.7591107,16.5028099 87.1721981,16.643631 86.5479522,16.643631 C85.7544047,16.643631 85.118872,16.4350071 84.6404861,16.01689 C84.1621002,15.5996421 83.9233414,15.0172337 83.9233414,14.2705339 C83.9233414,13.5438272 84.1603638,12.9422949 84.6352769,12.4676755 C85.1101899,11.9921868 85.8464353,11.5705926 86.843145,11.2037622 C86.9516717,11.1637759 87.3041666,11.0290396 87.9014978,10.8012918 C88.4979608,10.5744133 88.9285949,10.3414499 89.1934002,10.1041402 C89.4582055,9.86596124 89.590174,9.60518134 89.590174,9.3191927 L89.590174,7.69974948 C89.590174,7.12255662 89.4529962,6.66793031 89.1777723,6.3350013" id="Fill-15" fill="#5A6C89"></path>
                                <path d="M111.505805,15.4722946 C111.594362,15.6896112 111.733277,15.8426021 111.922547,15.930398 C112.112686,16.0190632 112.374019,16.0633957 112.706545,16.0633957 L112.706545,16.501506 C111.322612,16.4467422 110.403173,16.419795 109.949097,16.419795 C109.562742,16.419795 108.704078,16.4467422 107.374843,16.501506 L107.374843,16.0633957 C107.625756,16.0633957 107.822841,16.0190632 107.965228,15.930398 C108.107615,15.8426021 108.210933,15.6913497 108.27518,15.4775102 C108.340297,15.2636707 108.37242,14.9594275 108.37242,14.5656498 L108.37242,8.07657644 C108.37242,7.49938358 108.285599,7.06648894 108.112824,6.7778925 C107.94005,6.48929607 107.60926,6.34499786 107.120456,6.34499786 C106.781852,6.34499786 106.465823,6.44322496 106.174103,6.64054842 C105.882383,6.83700262 105.640151,7.10560592 105.446539,7.44548907 C105.253796,7.78450295 105.136587,8.16524161 105.095781,8.58596653 L105.095781,8.95279693 L105.095781,14.5656498 C105.095781,14.9524733 105.134851,15.254978 105.21299,15.4722946 C105.291129,15.6896112 105.416152,15.8426021 105.589795,15.930398 C105.762569,16.0190632 106.001328,16.0633957 106.306939,16.0633957 L106.306939,16.501506 C104.976836,16.4467422 104.102544,16.419795 103.68146,16.419795 C103.288159,16.419795 102.426891,16.4467422 101.097656,16.501506 L101.097656,16.0633957 C101.348569,16.0633957 101.544786,16.0190632 101.687173,15.930398 C101.82956,15.8426021 101.933746,15.6896112 101.997993,15.4722946 C102.062241,15.254978 102.094365,14.9524733 102.094365,14.5656498 L102.094365,8.07657644 C102.094365,7.49242945 102.019699,7.05779627 101.870366,6.77267691 C101.721033,6.48755754 101.423236,6.34499786 100.975237,6.34499786 C100.608851,6.34499786 100.271984,6.45017909 99.9628999,6.66054155 C99.654684,6.87090401 99.4081112,7.16123897 99.224918,7.53154644 C99.0425931,7.90185391 98.9505624,8.31127836 98.9505624,8.75895054 L98.9505624,14.5656498 C98.9505624,14.9524733 98.9826864,15.254978 99.0469342,15.4722946 C99.1120502,15.6896112 99.2153677,15.8426021 99.3577548,15.930398 C99.5001419,16.0190632 99.6963582,16.0633957 99.9472721,16.0633957 L99.9472721,16.501506 C98.7265632,16.4467422 97.9095739,16.419795 97.4954358,16.419795 C97.0682745,16.419795 96.1088981,16.4467422 94.6164383,16.501506 L94.6164383,16.0633957 C94.9489642,16.0633957 95.2111649,16.0190632 95.4047766,15.930398 C95.5983883,15.8426021 95.7373025,15.6896112 95.8223875,15.4722946 C95.9066043,15.254978 95.9491467,14.9524733 95.9491467,14.5656498 L95.9491467,7.98530348 C95.9491467,7.34030784 95.8510386,6.87264254 95.653954,6.58404611 C95.4577376,6.29544968 95.1113203,6.15115146 94.6164383,6.15115146 L94.6164383,5.71304122 C95.057491,5.75389673 95.4881251,5.77475913 95.9083407,5.77475913 C97.1359952,5.77475913 98.1500692,5.67913983 98.9505624,5.48963976 L98.9505624,7.36377803 C99.5748083,6.07291749 100.65313,5.42792185 102.186396,5.42792185 C103.243881,5.42792185 104.007041,5.69652516 104.475008,6.2328625 C104.732867,6.53189013 104.909115,6.95261504 105.004618,7.49590652 C105.357113,6.74225258 105.826817,6.20939231 106.41373,5.89645642 C107.000642,5.5843898 107.680454,5.42792185 108.453164,5.42792185 C109.511517,5.42792185 110.274677,5.69652516 110.742645,6.2328625 C110.966644,6.49798874 111.127263,6.84221822 111.22624,7.26728946 C111.324348,7.69149145 111.373836,8.25303751 111.373836,8.95279693 L111.373836,14.5656498 C111.373836,14.9524733 111.417247,15.254978 111.505805,15.4722946" id="Fill-17" fill="#5A6C89"></path>
                                <path d="M119.813136,6.94609555 C119.572641,6.226343 119.207991,5.86646673 118.719187,5.86646673 C118.224305,5.86646673 117.811903,6.17331775 117.48285,6.78788907 C117.153797,7.40246038 116.952371,8.35865338 116.877705,9.65559878 L120.143926,9.65559878 C120.163895,8.56901584 120.053632,7.66584809 119.813136,6.94609555 M116.888124,11.0307782 C116.888124,11.9548083 117.016619,12.720632 117.274479,13.3282491 C117.532338,13.9358663 117.866601,14.3809307 118.276398,14.662573 C118.687063,14.9442153 119.126379,15.0850365 119.594346,15.0850365 C120.740389,15.0850365 121.659827,14.528706 122.351794,13.4143065 L122.71818,13.5368731 C122.541933,14.1071118 122.268445,14.6391028 121.898586,15.1311076 C121.529595,15.6231123 121.06076,16.0238441 120.494684,16.3333029 C119.928609,16.6418925 119.282658,16.7966219 118.556831,16.7966219 C117.600059,16.7966219 116.760496,16.5932136 116.038142,16.1855277 C115.315788,15.7778417 114.753185,15.1580548 114.349466,14.3261669 C113.945746,13.494279 113.744321,12.4607213 113.744321,11.2246246 C113.744321,9.96158054 113.961374,8.89672925 114.395481,8.03093996 C114.829588,7.16515067 115.429524,6.51493943 116.196157,6.08030625 C116.96279,5.64567307 117.8475,5.42835648 118.852024,5.42835648 C121.462743,5.42835648 122.768537,6.96956574 122.768537,10.0528535 L116.918511,10.0528535 C116.898542,10.2571311 116.888124,10.583106 116.888124,11.0307782" id="Fill-19" fill="#5A6C89"></path>
                                <path d="M129.326244,5.98338305 C129.824598,5.61307558 130.389806,5.42792185 131.020129,5.42792185 C131.441213,5.42792185 131.793708,5.52006408 132.078482,5.70347929 C132.363256,5.88689449 132.573364,6.12246567 132.708805,6.4110621 C132.845115,6.69965853 132.912836,7.01085589 132.912836,7.34291564 C132.912836,7.85925985 132.763503,8.28085404 132.464837,8.60682892 C132.166172,8.93280381 131.772871,9.09535662 131.284934,9.09535662 C130.810021,9.09535662 130.434953,8.97452859 130.160597,8.73374181 C129.886242,8.49295503 129.748196,8.16871868 129.748196,7.76103276 C129.748196,7.09517473 130.053807,6.55188325 130.664161,6.13115833 C130.575604,6.11029594 130.491387,6.10073401 130.409775,6.10073401 C130.315139,6.10073401 130.206613,6.11725007 130.084194,6.15115146 C129.7317,6.20591524 129.409592,6.37368365 129.117872,6.65532595 C128.826152,6.93783751 128.596944,7.27511286 128.431115,7.66889052 C128.264418,8.06353745 128.181938,8.44688391 128.181938,8.82066845 L128.181938,14.3518103 C128.181938,14.9968059 128.337348,15.4436088 128.649905,15.6913497 C128.961594,15.9390907 129.459949,16.0633957 130.144969,16.0633957 L130.144969,16.501506 C128.408542,16.4467422 127.303305,16.419795 126.828392,16.419795 C126.387339,16.419795 125.394103,16.4467422 123.846945,16.501506 L123.846945,16.0633957 C124.179471,16.0633957 124.44254,16.0190632 124.636152,15.930398 C124.828895,15.8426021 124.96781,15.6896112 125.052895,15.4722946 C125.137979,15.254978 125.180522,14.9524733 125.180522,14.5656498 L125.180522,7.98530348 C125.180522,7.34030784 125.081546,6.87264254 124.885329,6.58404611 C124.688245,6.29544968 124.342695,6.15115146 123.846945,6.15115146 L123.846945,5.71304122 C124.287998,5.75389673 124.718632,5.77475913 125.139716,5.77475913 C126.36737,5.77475913 127.381444,5.67913983 128.181938,5.48963976 L128.181938,7.42462668 C128.445875,6.83439482 128.827889,6.35369052 129.326244,5.98338305" id="Fill-21" fill="#5A6C89"></path>
                            </g>
                            <g id="-g-beeldmerk">
                                <path d="M29.5542859,31.9390138 L27.1832206,31.9390138 L27.1832206,10.1498512 L23.0390726,7.65019377 C22.6834128,7.43544983 22.4662232,7.05052249 22.4662232,6.63525606 L22.4662232,2.37024221 L21.0260381,2.37024221 L21.0260381,4.33612111 C21.0260381,4.7637128 20.7955706,5.15812111 20.4233133,5.36812457 C20.0510561,5.57907612 19.5948631,5.57243945 19.2282964,5.35105882 L14.6236876,2.57408304 L2.37097047,10.1417924 L2.37097047,27.1018235 L-9.48426132e-05,27.1018235 L-9.48426132e-05,9.48096886 C-9.48426132e-05,9.07044291 0.212826823,8.68883391 0.56232185,8.47266782 L13.9934584,0.176820069 C14.3718805,-0.0559377163 14.849413,-0.0583079585 15.2292577,0.170183391 L18.6549728,2.2370346 L18.6549728,1.18512111 C18.6549728,0.530460208 19.1856173,0 19.8405055,0 L23.6517559,0 C24.3066441,0 24.8372885,0.530460208 24.8372885,1.18512111 L24.8372885,5.9663737 L28.9814365,8.46603114 C29.3370963,8.68077509 29.5542859,9.06570242 29.5542859,9.48096886 L29.5542859,31.9390138 Z" id="Fill-1" fill="#5A6C89"></path>
                                <path d="M25.4683239,31.9390138 L23.0972585,31.9390138 L23.0972585,12.1005606 L14.6719151,7.01876125 L6.45712217,12.0925017 L6.45712217,27.0748028 L4.08605686,27.0748028 L4.08605686,11.4316782 C4.08605686,11.0211522 4.29850431,10.6395433 4.64847355,10.4233772 L14.0416859,4.62149827 C14.4196337,4.38779239 14.8971663,4.38589619 15.2774851,4.61486159 L24.8954745,10.4172145 C25.2511343,10.6319585 25.4683239,11.0164118 25.4683239,11.4316782 L25.4683239,31.9390138 Z" id="Fill-4" fill="#5A6C89"></path>
                                <path d="M21.1775018,31.9390138 L18.8064365,31.9390138 L18.8064365,14.4674844 L14.7229878,12.0038547 L10.7476597,14.4589516 L10.7476597,27.1719827 L8.37659438,27.1719827 L8.37659438,13.798128 C8.37659438,13.3876021 8.58951605,13.0064671 8.93901108,12.789827 L14.0927586,9.60706574 C14.4707065,9.37430796 14.948239,9.37193772 15.3285579,9.60042907 L20.6046524,12.7836644 C20.9603122,12.9984083 21.1775018,13.3828616 21.1775018,13.798128 L21.1775018,31.9390138 Z" id="Fill-6" fill="#5A6C89"></path>
                            </g>
                        </g>
                    </g>
                </g>
            </g>
        </g>
    </g>
</svg>