<?xml version="1.0" encoding="UTF-8"?>
<svg width="92px" height="32px" viewBox="0 0 92 32" version="1.1" xmlns="http://www.w3.org/2000/svg" xmlns:xlink="http://www.w3.org/1999/xlink">
    <!-- Generator: Sketch 49.3 (51167) - http://www.bohemiancoding.com/sketch -->
    <title>client-logo copy 2</title>
    <desc>Created with Sketch.</desc>
    <defs>
        <rect id="path-1" x="0" y="0" width="244" height="32"></rect>
    </defs>
    <g id="👶Current" stroke="none" stroke-width="1" fill="none" fill-rule="evenodd" opacity="0.5">
        <g id="01.Homepage-#26" transform="translate(-846.000000, -2791.000000)">
            <g id="client-logo-copy-2" transform="translate(770.000000, 2791.000000)">
                <g id="client-logo-placeholder">
                    <mask id="mask-2" fill="white">
                        <use xlink:href="#path-1"></use>
                    </mask>
                    <g id="logo-x32-bg"></g>
                </g>
                <g id="solvisoft-logo" transform="translate(76.000000, 0.000000)" fill="#5A6C89">
                    <path d="M54.75344,5.359936 C56.63056,10.205056 52.94928,16.148416 46.53072,18.635136 C40.11216,21.122496 33.38672,19.210816 31.5096,14.366016 C29.63248,9.520896 33.31408,3.577216 39.73264,1.090176 C46.1512,-1.396544 52.87632,0.514816 54.75344,5.359936 Z M48.61232,2.67744 C48.61232,2.67744 43.97936,2.63648 39.8424,4.38944 C35.70512,6.14176 34.97168,9.03584 38.5176,10.2176 C42.06384,11.4 45.60976,10.82944 45.60976,10.82944 C45.60976,10.82944 38.80304,11.03296 38.31376,7.93536 C37.8248,4.83776 46.09232,2.71808 48.61232,2.67744 Z M36.940288,16.734304 C36.940288,16.734304 41.573248,16.775264 45.710208,15.022304 C49.847488,13.269984 50.580928,10.375904 47.035008,9.194144 C43.488768,8.011744 39.942848,8.582304 39.942848,8.582304 C39.942848,8.582304 46.749568,8.378784 47.238848,11.476384 C47.727808,14.574304 39.460288,16.693664 36.940288,16.734304 Z" id="Combined-Shape"></path>
                    <path d="M89.897344,22.719328 L90.130624,22.719328 C90.395904,22.719328 90.620864,22.622688 90.620864,22.373728 C90.620864,22.196768 90.492224,22.019808 90.130624,22.019808 C90.025984,22.019808 89.953664,22.028128 89.897344,22.035808 L89.897344,22.719328 Z M89.897344,23.836768 L89.575744,23.836768 L89.575744,21.819168 C89.744384,21.794848 89.905344,21.770848 90.146624,21.770848 C90.451904,21.770848 90.652864,21.834848 90.773504,21.923488 C90.894144,22.011808 90.958464,22.148448 90.958464,22.341408 C90.958464,22.606688 90.781504,22.767328 90.564544,22.831968 L90.564544,22.847968 C90.741504,22.880288 90.862144,23.040928 90.902144,23.338528 C90.950464,23.651808 90.998464,23.772448 91.030784,23.836768 L90.693184,23.836768 C90.644864,23.772448 90.596544,23.587488 90.556544,23.322208 C90.508224,23.064928 90.379584,22.968608 90.122304,22.968608 L89.897344,22.968608 L89.897344,23.836768 Z M90.234944,21.256288 C89.439104,21.256288 88.787904,21.939488 88.787904,22.783648 C88.787904,23.643808 89.439104,24.319008 90.242944,24.319008 C91.046784,24.327008 91.689984,23.643808 91.689984,22.791968 C91.689984,21.939488 91.046784,21.256288 90.242944,21.256288 L90.234944,21.256288 Z M90.242944,20.975008 C91.231744,20.975008 92.019584,21.778848 92.019584,22.783648 C92.019584,23.804768 91.231744,24.600608 90.234944,24.600608 C89.246144,24.600608 88.442304,23.804768 88.442304,22.783648 C88.442304,21.778848 89.246144,20.975008 90.234944,20.975008 L90.242944,20.975008 Z" id="Fill-7"></path>
                    <path d="M6.802496,26.326816 C8.713216,26.326816 9.668736,27.178656 9.668736,28.329696 L9.668736,29.710816 C9.668736,30.849376 8.991296,31.833696 7.083776,31.833696 L0.011776,31.833696 L0.011776,30.203616 L6.807616,30.203616 C7.410496,30.203616 8.063936,30.117536 8.063936,29.537056 L8.063936,28.545056 C8.063936,28.009376 7.545856,27.920096 6.807296,27.920096 L2.834816,27.920096 C1.158016,27.920096 -6.40000001e-05,27.590496 -6.40000001e-05,26.441376 L-6.40000001e-05,25.533856 C-6.40000001e-05,24.385056 0.758336,23.729696 2.665856,23.729696 L9.377216,23.729696 L9.377216,25.365536 L2.829696,25.365536 C2.226496,25.365536 1.648576,25.447456 1.648576,25.818976 L1.648576,25.920096 C1.648576,26.283296 2.226496,26.326816 2.830016,26.326816 L6.802496,26.326816 Z" id="Fill-11"></path>
                    <path d="M51.57952,26.326816 C53.48992,26.326816 54.44576,27.178656 54.44576,28.329696 L54.44576,29.710816 C54.44576,30.849376 53.76832,31.833696 51.8608,31.833696 L44.7888,31.833696 L44.7888,30.203616 L51.58432,30.203616 C52.18752,30.203616 52.84096,30.117536 52.84096,29.537056 L52.84096,28.545056 C52.84096,28.009376 52.32256,27.920096 51.584,27.920096 L47.61184,27.920096 C45.93504,27.920096 44.77696,27.590496 44.77696,26.441376 L44.77696,25.533856 C44.77696,24.385056 45.53504,23.729696 47.44256,23.729696 L54.15424,23.729696 L54.15424,25.365536 L47.60672,25.365536 C47.00352,25.365536 46.42528,25.447456 46.42528,25.818976 L46.42528,25.920096 C46.42528,26.283296 47.00352,26.326816 47.60672,26.326816 L51.57952,26.326816 Z" id="Fill-14"></path>
                    <path d="M17.732032,30.20368 C18.318272,30.20368 18.886912,30.02544 18.886912,29.66896 L18.886912,25.91856 C18.886912,25.54992 18.318272,25.3656 17.732032,25.3656 L13.335552,25.3656 C12.749312,25.3656 12.182592,25.54992 12.182592,25.91856 L12.182592,29.6504 C12.182592,30.01936 12.749312,30.20368 13.335552,30.20368 L17.732032,30.20368 Z M10.557312,25.47696 C10.557312,24.30992 11.484032,23.72656 13.338112,23.72656 L17.729472,23.72656 C19.583552,23.72656 20.510592,24.30992 20.510592,25.47696 L20.510592,30.1016 C20.510592,31.25616 19.583552,31.83376 17.729472,31.83376 L13.338112,31.83376 C11.484032,31.83376 10.557312,31.25008 10.557312,30.08304 L10.557312,25.47696 Z" id="Fill-17"></path>
                    <path d="M62.554976,30.20368 C63.141216,30.20368 63.709856,30.02544 63.709856,29.66896 L63.709856,25.91856 C63.709856,25.54992 63.141216,25.3656 62.554976,25.3656 L58.158496,25.3656 C57.572256,25.3656 57.005216,25.54992 57.005216,25.91856 L57.005216,29.6504 C57.005216,30.01936 57.572256,30.20368 58.158496,30.20368 L62.554976,30.20368 Z M55.380256,25.47696 C55.380256,24.30992 56.307296,23.72656 58.161376,23.72656 L62.552416,23.72656 C64.406496,23.72656 65.333536,24.30992 65.333536,25.47696 L65.333536,30.1016 C65.333536,31.25616 64.406496,31.83376 62.552416,31.83376 L58.161376,31.83376 C56.307296,31.83376 55.380256,31.25008 55.380256,30.08304 L55.380256,25.47696 Z" id="Fill-20"></path>
                    <polygon id="Fill-23" points="21.454688 23.729632 23.073568 23.729632 23.073568 30.203552 28.747808 30.203552 28.747808 31.833632 21.454688 31.833632"></polygon>
                    <polygon id="Fill-26" points="35.31264 31.833696 34.49792 31.833696 29.21472 23.729696 31.07968 23.729696 34.91264 29.708256 38.90592 23.729696 40.75616 23.729696"></polygon>
                    <polygon id="Fill-29" points="41.56768 31.833536 43.17824 31.833536 43.17824 23.732416 41.56768 23.732416"></polygon>
                    <polygon id="Fill-31" points="68.271392 27.899936 68.271392 31.833696 66.651232 31.833696 66.651232 23.729696 76.669152 23.729696 76.669152 25.365536 68.271392 25.365536 68.271392 26.298656 74.676512 26.298656 74.676512 27.899936"></polygon>
                    <polygon id="Fill-32" points="77.429536 23.729632 87.509216 23.729632 87.509216 25.365472 83.270176 25.365472 83.270176 31.833632 81.634976 31.833632 81.634976 25.365472 77.429536 25.365472"></polygon>
                </g>
            </g>
        </g>
    </g>
</svg>